<svg width="102" height="23" viewBox="0 0 102 23" fill="none" xmlns="http://www.w3.org/2000/svg">
<g id="Feetz">
<path d="M0 14.7705C0 16.309 1.29505 17.5562 2.89257 17.5562H3.79236C4.89294 17.5562 5.78514 16.697 5.78514 15.6371C5.78514 14.5771 6.67734 13.7179 7.77792 13.7179H14.4794C15.6776 13.7179 16.6488 12.7825 16.6488 11.6287C16.6488 10.4748 15.6776 9.53939 14.4794 9.53939H6.69045C6.19046 9.53939 5.78514 9.14904 5.78514 8.66753C5.78514 8.18602 6.19046 7.79567 6.69045 7.79567H15.7435C17.0423 7.79567 18.0951 6.78173 18.0951 5.53097C18.0951 4.28021 17.0423 3.26627 15.7435 3.26627H7.41911C3.32165 3.26627 0 6.46518 0 10.4112V14.7705Z" fill="white"/>
<path d="M20.2144 15.855C20.2144 19.8011 23.5361 23 27.6335 23H35.6764C36.7282 23 37.5809 22.1789 37.5809 21.1659C37.5809 20.153 36.7282 19.3318 35.6764 19.3318H26.949C26.4247 19.3318 25.9996 18.9224 25.9996 18.4174C25.9996 17.9124 26.4247 17.5031 26.949 17.5031H35.8641C36.8123 17.5031 37.5809 16.7628 37.5809 15.8497C37.5809 14.9366 36.8123 14.1964 35.8641 14.1964H26.949C26.4247 14.1964 25.9996 13.787 25.9996 13.282C25.9996 12.777 26.4247 12.3676 26.949 12.3676H35.682C36.7307 12.3676 37.5809 11.5488 37.5809 10.5388C37.5809 9.52883 36.7307 8.71006 35.682 8.71006H27.6335C23.5361 8.71006 20.2144 11.909 20.2144 15.855Z" fill="#595959"/>
<path d="M41.1134 7.14497C41.1134 11.091 44.435 14.2899 48.5325 14.2899H56.5754C57.6272 14.2899 58.4798 13.4688 58.4798 12.4559C58.4798 11.4429 57.6272 10.6218 56.5754 10.6218H47.848C47.3236 10.6218 46.8985 10.2124 46.8985 9.70738C46.8985 9.20238 47.3236 8.79299 47.848 8.79299H56.7631C57.7112 8.79299 58.4798 8.05277 58.4798 7.13965C58.4798 6.22654 57.7112 5.48632 56.7631 5.48632H47.848C47.3236 5.48632 46.8985 5.07693 46.8985 4.57193C46.8985 4.06693 47.3236 3.65754 47.848 3.65754H56.5809C57.6297 3.65754 58.4798 2.83878 58.4798 1.82877C58.4798 0.818769 57.6297 0 56.5809 0H48.5325C44.435 0 41.1134 3.19891 41.1134 7.14497Z" fill="#595959"/>
<path d="M70.5244 17.5562C72.1219 17.5562 73.417 16.309 73.417 14.7705V11.1077C73.417 9.2785 74.9567 7.79567 76.856 7.79567H77.9435C79.2423 7.79567 80.2951 6.78173 80.2951 5.53097C80.2951 4.28021 79.2423 3.26627 77.9435 3.26627H63.1053C61.8066 3.26627 60.7537 4.28021 60.7537 5.53097C60.7537 6.78173 61.8066 7.79567 63.1053 7.79567H64.1928C66.0921 7.79567 67.6318 9.2785 67.6318 11.1077V14.7705C67.6318 16.309 68.9269 17.5562 70.5244 17.5562Z" fill="white"/>
<path d="M84.8318 7.79567C86.9054 7.79567 87.6196 10.4533 85.8064 11.4221L84.115 12.3258C83.3176 12.7519 82.8229 13.561 82.8229 14.4392V14.6987C82.8229 16.2768 84.1514 17.5562 85.7901 17.5562H99.6429C100.945 17.5562 102 16.5399 102 15.2862V14.9716C102 13.8916 101.091 13.0162 99.9696 13.0162C97.8576 13.0162 97.1492 10.297 99.0111 9.33691L100.678 8.47757C101.492 8.05774 102 7.24049 102 6.35109V6.09912C102 4.53458 100.683 3.26627 99.0585 3.26627H85.1745C83.8758 3.26627 82.8229 4.28021 82.8229 5.53097V5.861C82.8229 6.92949 83.7223 7.79567 84.8318 7.79567Z" fill="white"/>
</g>
</svg>
