<svg width="9" height="8" viewBox="0 0 9 8" fill="none" xmlns="http://www.w3.org/2000/svg">
<path id="Vector" d="M8.18007 3.57303H1.60591L5.54074 0.157303C5.60367 0.102247 5.56546 0 5.48232 0H4.48794C4.44412 0 4.40254 0.0157303 4.36996 0.0438202L0.123891 3.72809C0.0850022 3.7618 0.0538133 3.80347 0.032438 3.85029C0.0110626 3.89711 0 3.94797 0 3.99944C0 4.0509 0.0110626 4.10177 0.032438 4.14858C0.0538133 4.1954 0.0850022 4.23708 0.123891 4.27079L4.39468 7.97753C4.41153 7.99214 4.43176 8 4.4531 8H5.48119C5.56434 8 5.60254 7.89663 5.53962 7.8427L1.60591 4.42697H8.18007C8.22951 4.42697 8.26996 4.38652 8.26996 4.33708V3.66292C8.26996 3.61348 8.22951 3.57303 8.18007 3.57303Z" fill="white"/>
</svg>
